<?xml version="1.0" standalone="no"?>
<!DOCTYPE svg PUBLIC "-//W3C//DTD SVG 20010904//EN"
 "http://www.w3.org/TR/2001/REC-SVG-20010904/DTD/svg10.dtd">
<svg version="1.0" xmlns="http://www.w3.org/2000/svg"
 width="524.000000pt" height="524.000000pt" viewBox="0 0 524.000000 524.000000"
 preserveAspectRatio="xMidYMid meet">
<metadata>
Created by potrace 1.11, written by Peter Selinger 2001-2013
</metadata>
<g transform="translate(0.000000,524.000000) scale(0.100000,-0.100000)"
fill="#000000" stroke="none">
<path d="M1807 5233 c447 -2 1179 -2 1625 0 447 1 82 2 -812 2 -894 0 -1259
-1 -813 -2z"/>
<path d="M1551 5128 c-14 -5 -17 -14 -13 -40 3 -18 9 -35 13 -38 5 -4 38 -5
74 -4 44 2 65 -1 66 -9 0 -7 0 -65 0 -129 1 -89 4 -118 14 -122 8 -3 17 4 21
17 7 22 52 74 57 66 2 -2 16 -24 32 -47 41 -62 52 -42 51 98 -2 132 -3 130
102 121 9 -1 12 -56 12 -241 0 -132 -3 -240 -6 -240 -5 0 -77 50 -119 82 -74
58 -99 76 -150 111 -33 22 -61 44 -63 49 -2 4 -8 8 -14 8 -6 0 -25 12 -43 28
-18 15 -45 36 -60 47 -16 11 -34 26 -41 33 -7 6 -15 12 -18 12 -4 0 -44 29
-91 65 -78 60 -85 64 -95 46 -6 -13 -6 -21 0 -23 6 -2 12 -23 15 -48 3 -25 7
-56 10 -70 3 -14 7 -39 9 -57 3 -18 7 -36 10 -41 2 -4 7 -32 11 -62 3 -29 8
-57 10 -60 3 -4 7 -29 10 -56 4 -26 8 -50 10 -54 2 -3 6 -25 10 -50 4 -24 10
-51 14 -60 5 -8 7 -26 6 -40 -1 -14 2 -38 7 -55 5 -16 11 -43 13 -60 2 -16 8
-42 14 -57 6 -16 7 -28 2 -28 -9 0 -41 -48 -69 -102 -8 -16 -18 -28 -23 -28
-5 0 -9 -6 -9 -14 0 -7 -9 -25 -21 -40 -11 -14 -17 -26 -12 -26 4 0 3 -4 -3
-8 -6 -4 -42 -56 -80 -117 -38 -60 -72 -111 -76 -113 -5 -2 -8 -8 -8 -14 0 -6
-25 -48 -55 -94 -30 -46 -55 -89 -55 -95 0 -14 25 -39 39 -39 6 0 11 -7 11
-15 0 -8 6 -15 13 -15 6 0 38 -24 69 -53 31 -29 69 -62 85 -74 15 -12 37 -30
48 -40 11 -10 88 -76 170 -147 83 -71 163 -139 178 -153 28 -24 28 -25 10 -45
-10 -11 -17 -23 -15 -27 1 -3 -4 -13 -11 -21 -7 -8 -20 -32 -30 -52 -10 -20
-22 -40 -27 -43 -6 -4 -17 -21 -25 -38 -8 -18 -31 -57 -50 -87 -19 -30 -42
-70 -51 -87 -9 -18 -21 -33 -26 -33 -5 0 -7 -4 -4 -9 3 -4 -8 -26 -24 -47 -16
-21 -30 -45 -30 -51 0 -7 -5 -13 -12 -13 -6 0 -9 -3 -6 -6 5 -4 -39 -80 -69
-119 -4 -6 -9 -17 -11 -25 -2 -8 -13 -25 -24 -37 -12 -13 -18 -23 -13 -23 4 0
1 -8 -7 -17 -9 -10 -25 -37 -37 -61 -12 -23 -26 -42 -31 -42 -6 0 -10 -5 -10
-11 0 -6 -16 -38 -36 -72 l-36 -62 18 -32 c25 -42 133 -185 153 -201 8 -6 12
-12 8 -12 -4 0 1 -8 11 -18 9 -10 26 -30 37 -46 11 -15 31 -43 45 -60 14 -18
36 -48 50 -66 14 -19 35 -46 47 -61 13 -15 23 -30 23 -33 0 -4 13 -21 30 -39
16 -18 30 -35 30 -39 0 -4 6 -13 13 -20 7 -7 35 -42 62 -78 27 -36 53 -69 57
-75 5 -5 25 -32 46 -60 20 -27 47 -61 60 -75 12 -14 22 -28 22 -31 0 -3 8 -15
18 -27 9 -11 26 -33 37 -48 11 -15 25 -32 30 -38 6 -6 22 -27 35 -46 40 -58
54 -73 294 -308 141 -140 176 -182 146 -182 -6 0 -22 7 -36 16 -19 13 -36 15
-77 10 -29 -4 -101 -12 -162 -17 -209 -18 -300 -28 -350 -39 -27 -6 -75 -15
-105 -20 -174 -26 -350 -106 -350 -159 0 -20 33 -52 70 -68 14 -6 45 -20 70
-31 25 -11 59 -23 75 -25 17 -3 48 -11 70 -17 53 -15 125 -28 203 -36 34 -4
62 -11 62 -15 0 -5 343 -9 765 -9 422 0 765 4 765 9 0 4 28 11 63 15 102 11
141 17 162 26 11 5 31 11 45 14 14 3 39 8 55 11 30 6 63 19 97 36 10 5 24 9
31 9 7 0 29 14 50 31 41 34 48 67 20 91 -35 29 -137 78 -164 78 -15 0 -30 4
-33 9 -6 9 -28 14 -126 31 -30 6 -77 14 -105 20 -82 17 -458 54 -522 51 -19 0
-33 4 -33 10 0 6 31 43 70 83 221 226 320 331 320 338 0 7 19 31 55 72 6 6 36
46 69 90 32 43 64 86 72 95 7 9 50 66 95 126 45 61 85 112 88 115 4 3 18 21
31 40 13 19 33 43 44 52 10 10 15 18 11 18 -5 0 2 12 16 27 14 16 45 55 70 88
24 33 49 65 54 71 6 6 17 22 25 34 8 12 23 32 33 44 31 38 147 190 174 229 22
31 25 42 15 55 -6 10 -19 33 -29 52 -9 19 -20 37 -23 40 -8 7 -148 243 -151
255 -2 6 -10 18 -20 28 -9 10 -24 36 -34 57 -10 22 -22 40 -27 40 -4 0 -8 5
-8 10 0 9 -50 96 -102 178 -10 15 -26 43 -35 62 -10 19 -21 37 -24 40 -7 5
-95 153 -118 197 -15 29 -13 31 124 148 33 28 66 57 75 65 9 8 43 37 75 64 62
51 69 58 120 104 17 15 57 50 89 77 33 28 74 64 93 80 l33 30 -45 68 c-25 37
-42 67 -38 67 4 0 0 6 -8 13 -18 14 -119 173 -119 186 0 5 -3 11 -7 13 -8 3
-69 93 -64 93 1 0 -32 52 -73 115 -47 72 -72 118 -66 125 5 6 11 30 14 53 3
23 8 46 11 52 3 5 8 35 11 66 2 32 8 62 12 68 5 6 7 22 6 36 -1 14 2 33 7 42
5 9 11 36 14 60 3 24 9 57 14 73 4 17 7 38 5 49 -1 10 2 30 8 45 6 14 11 37
13 51 1 14 6 40 10 59 4 19 9 50 11 70 1 20 6 46 10 59 5 18 2 22 -14 22 -11
0 -22 -4 -24 -9 -1 -5 -52 -41 -113 -80 -60 -38 -115 -75 -122 -81 -7 -5 -17
-10 -23 -10 -5 0 -10 -5 -10 -12 0 -6 -3 -9 -6 -5 -4 3 -12 1 -20 -6 -32 -29
-44 -37 -53 -37 -5 0 -16 -6 -23 -13 -15 -14 -141 -98 -177 -117 -14 -7 -34
-21 -44 -31 -11 -10 -24 -16 -29 -13 -4 3 -8 1 -8 -5 0 -9 -50 -41 -64 -41 -3
0 -5 107 -3 238 l2 237 205 1 c113 1 212 2 220 3 11 1 15 13 15 41 0 33 -4 40
-20 41 -80 5 -2000 3 -2014 -3z"/>
</g>
</svg>
